<?xml version="1.0" encoding="utf-8"?><!-- Uploaded to: SVG Repo, www.svgrepo.com, Generator: SVG Repo Mixer Tools -->
<svg fill="#000000" width="800px" height="800px" viewBox="0 0 24 24" id="airplane-2" data-name="Line Color" xmlns="http://www.w3.org/2000/svg" class="icon line-color"><path id="primary" d="M4,10v2.11a1,1,0,0,0,.42.81L10,16.84V19a2,2,0,0,0,2,2h0a2,2,0,0,0,2-2V16.84l5.58-3.92a1,1,0,0,0,.42-.81V10l-6,1V8l1.71-1.71a1,1,0,0,0,.29-.7V3L12,5,8,3V5.59a1,1,0,0,0,.29.7L10,8v3Z" style="fill: none; stroke: rgb(0, 0, 0); stroke-linecap: round; stroke-linejoin: round; stroke-width: 2;"></path></svg>