<?xml version="1.0" encoding="utf-8"?><!-- Uploaded to: SVG Repo, www.svgrepo.com, Generator: SVG Repo Mixer Tools -->
<svg fill="#000000" width="800px" height="800px" viewBox="0 0 24 24" id="airplane-disable" data-name="Flat Color" xmlns="http://www.w3.org/2000/svg" class="icon flat-color"><path id="primary" d="M14,6.18,5.41,14.77l-.25,0a1,1,0,0,1-1.16-1v-.93a1,1,0,0,1,.42-.81L10,8.16V4a2,2,0,0,1,4,0Zm5.58,5.9L16.15,9.67l-.82-.58L14,8.16V7.58L7.09,14.49,10,14v3.62l-1.71,1.7A1.05,1.05,0,0,0,8,20v1a1,1,0,0,0,1.45.89L12,20.62l2.55,1.27A1,1,0,0,0,16,21V20a1.05,1.05,0,0,0-.29-.71L14,17.62V14l4.84.81a1,1,0,0,0,1.16-1v-.93A1,1,0,0,0,19.58,12.08Z" style="fill: rgb(0, 0, 0);"></path><path id="secondary" d="M20.71,3.71l-16,16a1,1,0,0,1-1.42,0,1,1,0,0,1,0-1.42l16-16a1,1,0,1,1,1.42,1.42Z" style="fill: rgb(44, 169, 188);"></path></svg>